<?xml version="1.0" encoding="UTF-8" standalone="no" ?>
<!DOCTYPE svg PUBLIC "-//W3C//DTD SVG 1.1//EN" "http://www.w3.org/Graphics/SVG/1.1/DTD/svg11.dtd">
<svg xmlns="http://www.w3.org/2000/svg" xmlns:xlink="http://www.w3.org/1999/xlink" version="1.1" width="1080" height="1080" viewBox="0 0 1080 1080" xml:space="preserve">
<desc>Created with Fabric.js 5.2.4</desc>
<defs>
</defs>
<rect x="0" y="0" width="100%" height="100%" fill="transparent"></rect>
<g transform="matrix(1 0 0 1 540 540)" id="98a97fc7-ff15-4924-84ba-f71b4938393e"  >
<rect style="stroke: none; stroke-width: 1; stroke-dasharray: none; stroke-linecap: butt; stroke-dashoffset: 0; stroke-linejoin: miter; stroke-miterlimit: 4; fill: rgb(255,255,255); fill-rule: nonzero; opacity: 1; visibility: hidden;" vector-effect="non-scaling-stroke"  x="-540" y="-540" rx="0" ry="0" width="1080" height="1080" />
</g>
<g transform="matrix(1 0 0 1 540 540)" id="bcd7b4bd-2a95-4bc0-83ea-0ec07d9610e5"  >
</g>
<g transform="matrix(16.67 0 0 16.67 540 540)" id="a881b23b-b479-4add-8b91-e02b5c302553"  >
<rect style="stroke: rgb(0,0,0); stroke-width: 0; stroke-dasharray: none; stroke-linecap: butt; stroke-dashoffset: 0; stroke-linejoin: miter; stroke-miterlimit: 4; fill: rgb(0,0,0); fill-rule: nonzero; opacity: 1;" vector-effect="non-scaling-stroke"  x="-33.085" y="-33.085" rx="0" ry="0" width="66.17" height="66.17" />
</g>
<g transform="matrix(0 0 0 0 0 0)"  >
<g style=""   >
</g>
</g>
<g transform="matrix(0 0 0 0 0 0)"  >
<g style=""   >
</g>
</g>
<g transform="matrix(0 0 0 0 0 0)"  >
<g style=""   >
</g>
</g>
<g transform="matrix(0 0 0 0 0 0)"  >
<g style=""   >
</g>
</g>
<g transform="matrix(0 0 0 0 0 0)"  >
<g style=""   >
</g>
</g>
<g transform="matrix(5.28 0 0 5.28 539.08 540.92)"  >
<g style="" vector-effect="non-scaling-stroke"   >
		<g transform="matrix(1 0 0 1 0 0)"  >
<path style="stroke: none; stroke-width: 1; stroke-dasharray: none; stroke-linecap: butt; stroke-dashoffset: 0; stroke-linejoin: miter; stroke-miterlimit: 4; fill: rgb(0,0,0); fill-rule: nonzero; opacity: 1;" vector-effect="non-scaling-stroke"  transform=" translate(-100.94, -101.05)" d="M 100 201 C 66.687195 201 33.874397 201 1.030797 201 C 1.030797 134.395569 1.030797 67.791107 1.030797 1.093328 C 67.562645 1.093328 134.125458 1.093328 200.844147 1.093328 C 200.844147 67.666382 200.844147 134.333145 200.844147 201 C 167.458054 201 133.979034 201 100 201 M 101.609299 93.11512 C 114.57354 80.209915 127.526779 67.293633 140.512421 54.409988 C 142.779312 52.160896 144.108978 49.650013 141.513397 47.071262 C 138.853806 44.428909 136.293015 45.442783 133.786545 47.957951 C 105.267082 76.576431 76.702377 105.149956 48.083786 133.669281 C 45.605782 136.138702 44.369247 138.654755 46.96817 141.387009 C 49.73748 144.298386 52.300098 142.634048 54.646355 140.273376 C 70.119591 124.705109 85.626564 109.170387 101.609299 93.11512 M 108.274002 133.774902 C 104.837929 137.15593 101.113129 140.305267 98.116905 144.039215 C 97.01638 145.410736 96.757858 149.334122 97.674393 150.024948 C 99.193748 151.170166 101.996132 150.888229 104.214272 150.697876 C 105.119049 150.620224 105.926537 149.229004 106.749588 148.406677 C 115.100372 140.063446 123.445358 131.714432 131.791656 123.366707 C 137.906158 117.25119 144.054184 111.16864 150.117081 105.002388 C 152.420212 102.660004 152.913574 99.858452 150.273987 97.575256 C 147.830917 95.462044 145.368683 96.463486 143.23671 98.613274 C 131.764267 110.18174 120.264801 121.723404 108.274002 133.774902 z" stroke-linecap="round" />
</g>
		<g transform="matrix(1 0 0 1 -6.71 -6.82)"  >
<path style="stroke: none; stroke-width: 1; stroke-dasharray: none; stroke-linecap: butt; stroke-dashoffset: 0; stroke-linejoin: miter; stroke-miterlimit: 4; fill: rgb(248,248,248); fill-rule: nonzero; opacity: 1;" vector-effect="non-scaling-stroke"  transform=" translate(-94.23, -94.23)" d="M 101.365921 93.369926 C 85.626564 109.170387 70.119591 124.705109 54.646355 140.273376 C 52.300098 142.634048 49.73748 144.298386 46.96817 141.387009 C 44.369247 138.654755 45.605782 136.138702 48.083786 133.669281 C 76.702377 105.149956 105.267082 76.576431 133.786545 47.957951 C 136.293015 45.442783 138.853806 44.428909 141.513397 47.071262 C 144.108978 49.650013 142.779312 52.160896 140.512421 54.409988 C 127.526779 67.293633 114.57354 80.209915 101.365921 93.369926 z" stroke-linecap="round" />
</g>
		<g transform="matrix(1 0 0 1 23.65 22.59)"  >
<path style="stroke: none; stroke-width: 1; stroke-dasharray: none; stroke-linecap: butt; stroke-dashoffset: 0; stroke-linejoin: miter; stroke-miterlimit: 4; fill: rgb(243,243,243); fill-rule: nonzero; opacity: 1;" vector-effect="non-scaling-stroke"  transform=" translate(-124.59, -123.64)" d="M 108.52433 133.524597 C 120.264801 121.723404 131.764267 110.18174 143.23671 98.613274 C 145.368683 96.463486 147.830917 95.462044 150.273987 97.575256 C 152.913574 99.858452 152.420212 102.660004 150.117081 105.002388 C 144.054184 111.16864 137.906158 117.25119 131.791656 123.366707 C 123.445358 131.714432 115.100372 140.063446 106.749588 148.406677 C 105.926537 149.229004 105.119049 150.620224 104.214272 150.697876 C 101.996132 150.888229 99.193748 151.170166 97.674393 150.024948 C 96.757858 149.334122 97.01638 145.410736 98.116905 144.039215 C 101.113129 140.305267 104.837929 137.15593 108.52433 133.524597 z" stroke-linecap="round" />
</g>
</g>
</g>
</svg>